<svg xmlns="http://www.w3.org/2000/svg" width="48" height="48" viewBox="0 0 64 64"><path d="M 17 12 C 13.691 12 11 14.691 11 18 L 11 46 C 11 49.309 13.691 52 17 52 L 47 52 C 50.309 52 53 49.309 53 46 L 53 18 C 53 14.691 50.309 12 47 12 L 17 12 z M 17 23 L 47 23 C 48.103 23 49 23.897 49 25 L 49 46 C 49 47.103 48.103 48 47 48 L 17 48 C 15.897 48 15 47.103 15 46 L 15 25 C 15 23.897 15.897 23 17 23 z M 27 26 C 26.448 26 26 26.448 26 27 L 26 29 C 26 29.552 26.448 30 27 30 L 29 30 C 29.552 30 30 29.552 30 29 L 30 27 C 30 26.448 29.552 26 29 26 L 27 26 z M 35 26 C 34.448 26 34 26.448 34 27 L 34 29 C 34 29.552 34.448 30 35 30 L 37 30 C 37.552 30 38 29.552 38 29 L 38 27 C 38 26.448 37.552 26 37 26 L 35 26 z M 43 26 C 42.448 26 42 26.448 42 27 L 42 29 C 42 29.552 42.448 30 43 30 L 45 30 C 45.552 30 46 29.552 46 29 L 46 27 C 46 26.448 45.552 26 45 26 L 43 26 z M 19 33 C 18.448 33 18 33.448 18 34 L 18 36 C 18 36.552 18.448 37 19 37 L 21 37 C 21.552 37 22 36.552 22 36 L 22 34 C 22 33.448 21.552 33 21 33 L 19 33 z M 27 33 C 26.448 33 26 33.448 26 34 L 26 36 C 26 36.552 26.448 37 27 37 L 29 37 C 29.552 37 30 36.552 30 36 L 30 34 C 30 33.448 29.552 33 29 33 L 27 33 z M 35 33 C 34.448 33 34 33.448 34 34 L 34 36 C 34 36.552 34.448 37 35 37 L 37 37 C 37.552 37 38 36.552 38 36 L 38 34 C 38 33.448 37.552 33 37 33 L 35 33 z M 43 33 C 42.448 33 42 33.448 42 34 L 42 36 C 42 36.552 42.448 37 43 37 L 45 37 C 45.552 37 46 36.552 46 36 L 46 34 C 46 33.448 45.552 33 45 33 L 43 33 z M 19 40 C 18.448 40 18 40.448 18 41 L 18 43 C 18 43.552 18.448 44 19 44 L 21 44 C 21.552 44 22 43.552 22 43 L 22 41 C 22 40.448 21.552 40 21 40 L 19 40 z M 27 40 C 26.448 40 26 40.448 26 41 L 26 43 C 26 43.552 26.448 44 27 44 L 29 44 C 29.552 44 30 43.552 30 43 L 30 41 C 30 40.448 29.552 40 29 40 L 27 40 z M 35 40 C 34.448 40 34 40.448 34 41 L 34 43 C 34 43.552 34.448 44 35 44 L 37 44 C 37.552 44 38 43.552 38 43 L 38 41 C 38 40.448 37.552 40 37 40 L 35 40 z"/></svg>