<svg xmlns="http://www.w3.org/2000/svg" width="64" height="64" baseProfile="basic" viewBox="0 0 64 64"><circle cx="32" cy="32" r="23" fill="#37d0ee"/><path fill="#fff" d="M32,14c2.577,0,4.674-1.957,4.946-4.461C35.352,9.19,33.699,9,32,9 C19.297,9,9,19.297,9,32c0,1.699,0.19,3.352,0.539,4.946C12.044,36.674,14,34.577,14,32C14,22.075,22.075,14,32,14z" opacity=".3"/><path d="M54.461,27.054C51.956,27.326,50,29.423,50,32c0,9.925-8.075,18-18,18 c-2.577,0-4.674,1.957-4.946,4.461C28.648,54.81,30.301,55,32,55c12.703,0,23-10.297,23-23C55,30.301,54.81,28.648,54.461,27.054z" opacity=".15"/><path fill="none" stroke="#fff" stroke-linecap="round" stroke-linejoin="round" stroke-miterlimit="10" stroke-width="3" d="M15.047,23.427c1.878-3.699,4.932-6.705,8.666-8.522"/><path fill="#fff" d="M24.267,45.209c-0.938,0-1.652-0.259-2.146-0.777c-0.494-0.518-0.74-1.246-0.74-2.183V21.714 c0-1.948,0.975-2.923,2.923-2.923h8.991c2.91,0,5.155,0.703,6.734,2.109c1.578,1.406,2.367,3.367,2.367,5.883 c0,1.949-0.499,3.57-1.498,4.865s-2.424,2.177-4.273,2.646c1.307,0.395,2.38,1.345,3.219,2.849l2.294,4.255 c0.519,0.938,0.616,1.807,0.296,2.608c-0.32,0.802-1.098,1.203-2.331,1.203c-0.813,0-1.479-0.173-1.998-0.518 c-0.518-0.345-0.962-0.875-1.332-1.591l-3.552-6.549c-0.37-0.69-0.826-1.159-1.369-1.406c-0.543-0.246-1.184-0.37-1.924-0.37 h-2.812v7.474c0,0.938-0.241,1.665-0.722,2.183C25.914,44.95,25.205,45.209,24.267,45.209z M27.117,30.631h5.143 c3.083,0,4.625-1.233,4.625-3.7c0-2.442-1.542-3.663-4.625-3.663h-5.143V30.631z"/><ellipse cx="32" cy="61" opacity=".3" rx="19" ry="3"/></svg>